<?xml version="1.0" encoding="UTF-8" standalone="no"?>
<!DOCTYPE svg PUBLIC "-//W3C//DTD SVG 1.1//EN" "http://www.w3.org/Graphics/SVG/1.1/DTD/svg11.dtd">
<svg
   xmlns:svg="http://www.w3.org/2000/svg"
   xmlns="http://www.w3.org/2000/svg"
   version="1.1"
   width="284.742"
   height="90.396004"
   id="svg3844">
  <defs
     id="defs3846" />
  <path
     d="m 284.742,82.959 c -3.606,-0.235 -8.465,0.929 -10.188,-2.23 l -0.245,-1.934 0.023,-27.364 c 0.879,-3.631 6.58,-2.851 10.26,-2.899 v -7.733 h -31.75 v 49.597 h 31.899 c 0.001,-2.38 0.001,-4.909 0.001,-7.437 z m -68.874,-0.041 c 3.606,-0.236 8.465,0.93 10.187,-2.231 l 0.246,-1.934 -0.022,-27.363 c -0.879,-3.631 -6.581,-2.851 -10.262,-2.9 v -7.733 h 31.751 v 49.597 h -31.899 c -0.001,-2.379 -0.001,-4.908 -0.001,-7.436 z m -106.011,-6.84 32.53,0.044 c 0,2.744 -0.599,6.878 1.576,6.878 6.098,0.075 12.512,-0.03 18.516,-0.03 l 1.569,-1.911 -0.008,-10.781 c 0,-0.707 -0.223,-1.599 -1.71,-1.599 l -50.198,-0.022 c -1.804,0 -2.307,-2.06 -2.307,-3.659 l 0.031,-21.564 c 0,-2.677 3.817,-2.476 6.067,-2.476 l 77.636,0.022 c 0.894,0.298 2.09,0.446 2.239,1.561 l -0.008,11.37 -31.453,0.008 c 0,-2.101 0.595,-6.321 -1.339,-6.321 -6.543,-0.009 -13.533,-0.009 -20.15,0 l -0.818,0.818 0.03,13.087 c 0,2.212 3.725,1.606 7.034,1.613 h 43.796 c 2.063,0 2.908,0.32 2.908,1.658 0.018,7.557 0.001,15.243 -0.008,22.01 0,1.265 -0.446,2.893 -1.858,3.19 l -6.172,0.008 -75.027,-0.008 c -1.339,-0.223 -2.9,-1.35 -2.9,-3.116 -0.017,-3.531 0.031,-6.691 0.024,-10.78 z M 0.037,42.914 c 0,-1.413 0.658,-2.23 3.242,-2.23 l 79.935,0.022 c 0.744,0.148 1.799,0.721 2.022,1.539 0,4.09 0.041,8.231 0.06,12.321 l -30.361,0.022 -1.353,-0.003 c 0,-2.348 0.651,-6.996 -1.599,-6.994 l -19.481,0.007 c -0.669,0.298 -1.354,0.892 -1.651,1.636 0,10.857 0,22.939 0,32.792 0.818,1.859 2.84,1.413 4.551,1.487 l 16.062,-0.045 c 0.595,-0.149 1.338,-0.699 1.412,-1.442 L 52.802,70.352 c -0.818,-2.974 -4.016,-1.71 -6.469,-2.007 h -4.09 v -5.949 h 43.053 l -0.06,24.241 c -0.372,1.041 -0.981,2.082 -2.022,2.676 L 81.281,89.834 1.569,89.841 C 0.677,89.692 0.231,88.644 0.082,87.826 L 0,86.934 0.037,42.914 z"
     id="path3795" />
  <circle
     cx="250.25999"
     cy="16.73"
     r="16.73"
     id="circle3799"
     style="fill:#f0b85a" />
  <rect
     width="5.1110001"
     height="49.633999"
     x="247.75"
     y="40.757023"
     id="rect3805"
     style="fill:#f0b85a" />
</svg>
